<svg width="130" height="132" viewBox="0 0 130 132" fill="none" xmlns="http://www.w3.org/2000/svg">
<path d="M35.2581 120.932C-8.64621 93.3156 3.43222 73.7107 5.52659 59.3171C5.96949 50.6395 29.2323 11.1162 37.5245 5.49756C42.6883 1.98496 58.9107 -1.56741 82.4899 12.3239C136.629 38.2878 129.776 77.2705 119.582 93.5163C111.849 111.851 84.158 143.004 35.2581 120.932Z" fill="#00C1FE" stroke="#00C1FE" stroke-width="0.905099" stroke-linecap="round" stroke-linejoin="round"/>
<path d="M42.6047 67.2275C41.2298 67.1574 39.903 66.8327 38.6242 66.2534C37.3454 65.6741 36.3632 65.0048 35.6777 64.2456L38.5062 60.3247C38.8995 60.8587 39.4718 61.3202 40.2229 61.709C40.9986 62.0756 41.7476 62.2774 42.47 62.3143C43.006 62.3416 43.5129 62.2507 43.9909 62.0415C44.4688 61.8322 44.8595 61.5017 45.1629 61.0499C45.4664 60.5981 45.6353 60.0343 45.6698 59.3585C45.7079 58.6129 45.5897 57.9526 45.3153 57.3779C45.0642 56.8044 44.6668 56.3518 44.1229 56.0204C43.6036 55.6668 42.9711 55.4709 42.2254 55.4329C41.503 55.396 40.8102 55.4658 40.1471 55.6422C39.4851 55.7953 38.6994 56.0823 37.7901 56.5032L37.7551 56.5014L38.4188 43.4983L49.9888 44.0888L49.739 48.9825L42.5384 48.615L42.3475 52.3551L41.8068 51.2761C42.1354 51.2462 42.4518 51.2273 42.7559 51.2194C43.06 51.2116 43.3635 51.2154 43.6665 51.2309C45.2977 51.3141 46.6541 51.7455 47.7358 52.525C48.8408 53.3056 49.6659 54.3057 50.2111 55.525C50.7563 56.7444 50.9933 58.0532 50.9219 59.4514C50.8434 60.9894 50.4231 62.3581 49.661 63.5574C48.8988 64.7568 47.8935 65.6868 46.6448 66.3473C45.4195 67.0091 44.0728 67.3025 42.6047 67.2275ZM63.2256 68.0347C61.8973 67.9669 60.6509 67.6696 59.4862 67.1429C58.3448 66.6174 57.3441 65.8537 56.4841 64.8519C55.6485 63.828 55.0119 62.5689 54.5741 61.0747C54.1376 59.5571 53.9705 57.7963 54.0727 55.7922C54.1869 53.5551 54.5268 51.7034 55.0922 50.237C55.6589 48.7473 56.3965 47.57 57.3051 46.7052C58.237 45.8416 59.3067 45.2537 60.5142 44.9415C61.7229 44.606 63.0263 44.4739 64.4245 44.5453C65.7528 44.6131 66.9876 44.9097 68.1289 45.4352C69.2936 45.962 70.2937 46.7373 71.1293 47.7612C71.9893 48.763 72.6376 50.0227 73.0742 51.5403C73.5119 53.0345 73.6796 54.7837 73.5774 56.7877C73.4715 58.8617 73.1242 60.6313 72.5354 62.0965C71.9466 63.5617 71.1734 64.7489 70.2159 65.6579C69.2595 66.5436 68.1874 67.1782 66.9996 67.5614C65.8119 67.9447 64.5539 68.1025 63.2256 68.0347ZM63.4386 63.1742C64.6038 63.2337 65.5281 62.9771 66.2115 62.4046C66.8961 61.8087 67.3939 60.9813 67.7049 59.9225C68.0393 58.8648 68.2398 57.6835 68.3064 56.3785C68.3718 55.0969 68.2902 53.9479 68.0617 52.9316C67.8566 51.9165 67.4426 51.101 66.8198 50.4851C66.1983 49.8459 65.3049 49.4966 64.1398 49.4371C62.9979 49.3788 62.0853 49.636 61.4019 50.2086C60.7185 50.7811 60.2224 51.5735 59.9138 52.5858C59.6051 53.598 59.4181 54.745 59.3527 56.0267C59.2872 57.3083 59.3559 58.48 59.5588 59.5417C59.7616 60.6035 60.1732 61.4656 60.7935 62.128C61.4151 62.7672 62.2968 63.116 63.4386 63.1742ZM81.5762 58.6328C80.2946 58.5674 79.2492 58.222 78.44 57.5966C77.6308 56.9712 77.0537 56.1474 76.7087 55.1252C76.3637 54.1029 76.2233 52.9626 76.2875 51.7043C76.3518 50.4459 76.6069 49.3375 77.053 48.379C77.5003 47.3971 78.1583 46.6364 79.0269 46.0966C79.8956 45.5568 80.9707 45.3197 82.2524 45.3851C83.5341 45.4505 84.5678 45.7953 85.3537 46.4195C86.1629 47.0449 86.74 47.8687 87.085 48.891C87.4545 49.8911 87.6071 51.0204 87.5429 52.2787C87.4787 53.5371 87.2113 54.6566 86.7407 55.6372C86.2934 56.619 85.6354 57.3798 84.7668 57.9195C83.9214 58.4605 82.8579 58.6983 81.5762 58.6328ZM80.552 51.9219C80.5032 52.8773 80.5566 53.6627 80.7121 54.2781C80.8688 54.8702 81.2151 55.1799 81.7511 55.2073C82.287 55.2347 82.6515 54.9612 82.8443 54.387C83.0617 53.7906 83.1947 53.0147 83.2435 52.0593C83.2994 50.964 83.2466 50.167 83.0852 49.6681C82.9482 49.1471 82.6117 48.8729 82.0758 48.8456C81.5398 48.8182 81.1655 49.0561 80.9529 49.5593C80.7415 50.0391 80.6079 50.8267 80.552 51.9219ZM95.6128 70.6339C94.3311 70.5685 93.2857 70.2231 92.4765 69.5977C91.6673 68.9723 91.0902 68.1485 90.7452 67.1263C90.4002 66.104 90.2598 64.9637 90.3241 63.7053C90.3883 62.447 90.6434 61.3385 91.0896 60.38C91.5368 59.3982 92.1948 58.6374 93.0635 58.0977C93.9321 57.5579 95.0073 57.3208 96.2889 57.3862C97.5706 57.4516 98.6044 57.7964 99.3902 58.4206C100.199 59.046 100.776 59.8698 101.121 60.8921C101.491 61.8922 101.644 63.0214 101.579 64.2798C101.515 65.5382 101.248 66.6576 100.777 67.6383C100.33 68.6201 99.6719 69.3809 98.8033 69.9206C97.9579 70.4616 96.8944 70.6993 95.6128 70.6339ZM94.5885 63.923C94.5397 64.8784 94.5931 65.6638 94.7486 66.2792C94.9053 66.8713 95.2516 67.181 95.7876 67.2084C96.3236 67.2357 96.688 66.9623 96.8808 66.388C97.0982 65.7917 97.2312 65.0158 97.28 64.0604C97.3359 62.9651 97.2831 62.1681 97.1217 61.6692C96.9847 61.1482 96.6483 60.874 96.1123 60.8467C95.5763 60.8193 95.202 61.0572 94.9895 61.5604C94.7781 62.0402 94.6444 62.8277 94.5885 63.923ZM100.848 46.3342L82.6561 69.0614L77.8709 68.7471L95.9895 46.0862L100.848 46.3342ZM45.369 96.2862C45.4486 94.7249 45.8812 93.3452 46.6666 92.147C47.4754 90.95 48.5617 90.0358 49.9257 89.4045C51.2908 88.7499 52.8356 88.4666 54.56 88.5547C56.3077 88.6439 57.804 89.0824 59.0488 89.8702C60.2948 90.6347 61.2241 91.6517 61.8369 92.9213C62.4729 94.192 62.7511 95.608 62.6714 97.1693C62.5917 98.7306 62.1702 100.123 61.4069 101.345C60.6681 102.546 59.6394 103.475 58.3209 104.132C57.0024 104.789 55.4459 105.071 53.6516 104.98C51.9738 104.894 50.4874 104.491 49.1924 103.771C47.9207 103.052 46.9436 102.056 46.2609 100.783C45.5783 99.5094 45.2809 98.0106 45.369 96.2862ZM50.2958 96.5727C50.2553 97.365 50.3816 98.0957 50.6745 98.7649C50.9686 99.4107 51.3858 99.9343 51.9261 100.336C52.4663 100.737 53.086 100.956 53.7851 100.991C54.5541 101.031 55.2277 100.878 55.806 100.534C56.3843 100.189 56.841 99.7104 57.176 99.0967C57.5123 98.4597 57.7006 97.745 57.7411 96.9527C57.7827 96.1371 57.6681 95.407 57.3973 94.7623C57.1264 94.1177 56.7209 93.5947 56.1807 93.1933C55.6404 92.7919 54.9858 92.5716 54.2168 92.5323C53.5177 92.4967 52.879 92.651 52.3007 92.9953C51.7224 93.3396 51.2541 93.818 50.8957 94.4305C50.5374 95.043 50.3374 95.7571 50.2958 96.5727ZM67.595 105.271L68.157 94.2601L65.5703 94.1281L65.7916 89.7938L68.3782 89.9258L68.6494 84.6127C68.7516 82.6086 69.4058 81.0066 70.6119 79.8065C71.8425 78.5843 73.553 78.0291 75.7435 78.1409C76.396 78.1742 77.113 78.3159 77.8946 78.5661C78.7007 78.7941 79.3954 79.145 79.9786 79.6187L77.7361 83.0438C77.5186 82.729 77.249 82.5167 76.9276 82.4068C76.6306 82.2748 76.3423 82.2017 76.0626 82.1874C75.3635 82.1517 74.7807 82.3556 74.3142 82.7991C73.8476 83.2426 73.5882 83.977 73.5359 85.0023L73.2718 90.1756L77.8858 90.411L77.6646 94.7454L73.0506 94.5099L72.4886 105.521L67.595 105.271ZM78.8853 105.847L79.4473 94.8364L76.8606 94.7044L77.0819 90.37L79.6685 90.502L79.9397 85.1889C80.042 83.1849 80.6961 81.5828 81.9022 80.3827C83.1328 79.1605 84.8433 78.6053 87.0338 78.7171C87.6863 78.7504 88.4033 78.8922 89.1849 79.1423C89.991 79.3704 90.6857 79.7213 91.269 80.1949L89.0264 83.6201C88.8089 83.3052 88.5394 83.0929 88.2179 82.983C87.9209 82.8511 87.6326 82.7779 87.3529 82.7637C86.6538 82.728 86.071 82.9319 85.6045 83.3753C85.1379 83.8188 84.8785 84.5532 84.8262 85.5785L84.5621 90.7518L89.1761 90.9873L88.9549 95.3216L84.3409 95.0862L83.7789 106.097L78.8853 105.847Z" fill="white"/>
</svg>
